<svg width="47" height="48" viewBox="0 0 47 48" fill="none" xmlns="http://www.w3.org/2000/svg">
<path d="M20.2407 26.7303C19.96 26.6794 13.3241 25.526 9.7392 29.1278C6.80996 32.0707 7.04395 37.0607 7.2538 38.9342L6.08853 40.1049C5.55207 40.644 5.55409 41.5158 6.09303 42.0522C6.63206 42.5886 7.50376 42.5868 8.04032 42.0477L9.20219 40.8804C9.69541 40.936 10.4022 40.9928 11.2301 40.9928C13.5473 40.9928 16.8092 40.5473 18.9664 38.38C22.5475 34.7821 21.401 28.1236 21.3504 27.8419C21.2488 27.276 20.8063 26.8328 20.2407 26.7303ZM17.0147 36.4372C15.6819 37.7763 13.569 38.1654 11.8407 38.2296L15.9014 34.15C16.4379 33.6109 16.4359 32.7392 15.8969 32.2027C15.3578 31.6662 14.4861 31.6683 13.9496 32.2072L9.90361 36.2721C9.98182 34.4626 10.4095 32.3581 11.6911 31.0706C13.588 29.1647 17.0662 29.1822 18.7645 29.3237C18.9276 31.2844 18.7947 34.6488 17.0147 36.4372Z" fill="#101D23"/>
<path d="M45.623 21.031H44.2301L40.4958 2.07202C40.3687 1.42659 39.8028 0.961182 39.1448 0.961182H32.764C32.1061 0.961182 31.5402 1.42659 31.4131 2.07202L27.6788 21.031H24.9799V11.2432C24.9799 10.0191 23.4927 9.40209 22.627 10.2718L13.867 19.0727V11.2432C13.867 10.0192 12.3798 9.402 11.5142 10.2718L0.405742 21.4321C0.140725 21.6958 0 22.0581 0 22.408V46.5842C0 47.3447 0.616508 47.9612 1.37695 47.9612H45.623C46.3835 47.9612 47 47.3447 47 46.5842V22.408C47 21.6475 46.3835 21.031 45.623 21.031ZM33.8963 3.71509H38.0127L41.4233 21.031H30.4857L33.8963 3.71509ZM22.226 21.031H15.8034L22.226 14.5784V21.031ZM11.1131 21.031H4.69055L11.1131 14.5784V21.031ZM33.172 45.2073V31.0108H38.737V45.2073H33.172ZM44.2461 45.2073H41.4909V29.6338C41.4909 28.8734 40.8744 28.2569 40.1139 28.2569H31.795C31.0346 28.2569 30.4181 28.8734 30.4181 29.6338V45.2073H2.75391V23.7849H44.2461V45.2073Z" fill="#101D23"/>
</svg>
