<svg width="209" height="60" viewBox="0 0 209 60" fill="none" xmlns="http://www.w3.org/2000/svg">
<path d="M29.6715 60C46.0586 60 59.3429 46.5685 59.3429 30C59.3429 13.4315 46.0586 0 29.6715 0C13.2844 0 0 13.4315 0 30C0 46.5685 13.2844 60 29.6715 60Z" fill="#101D23"/>
<path d="M41.9784 32.5838L41.9548 32.2501C41.9313 32.0117 41.9077 31.7734 41.8605 31.535C41.8074 30.8976 41.7042 30.2654 41.5517 29.6446C41.4872 29.3273 41.4005 29.0151 41.2923 28.7102C41.142 28.1503 40.9602 27.5995 40.7477 27.0606C39.7763 24.6196 38.357 22.6816 37.1027 20.9581C35.2567 18.4694 33.7902 16.4837 33.7902 13.5397C33.7913 13.2476 33.712 12.961 33.5613 12.7118C33.4106 12.4626 33.1943 12.2607 32.9367 12.1285C32.6823 11.9874 32.393 11.9236 32.1035 11.9448C31.8141 11.9659 31.5369 12.0711 31.3052 12.2477C29.1505 13.852 27.3656 15.9096 26.0735 18.2787L26.0027 18.4217C25.8141 18.7793 25.6255 19.1631 25.4581 19.5231C25.4007 19.6461 25.3534 19.7736 25.3166 19.9045C24.979 20.6247 24.7174 21.379 24.5363 22.1548C24.0935 24.0613 23.8563 26.0107 23.8289 27.9688C22.5275 26.8198 22.1243 24.4265 22.1243 24.3931C22.0913 24.1446 21.9986 23.908 21.8543 23.704C21.7101 23.5 21.5187 23.3348 21.2968 23.2227C21.0811 23.1015 20.8392 23.036 20.5924 23.0318C20.3457 23.0277 20.1018 23.085 19.8822 23.1989C19.5993 23.3419 17.1614 24.6816 16.0957 29.0129C16.0486 29.2036 16.0014 29.4182 15.9543 29.6351C15.86 30.0642 15.7892 30.5195 15.7185 31.0225C15.7185 31.1178 15.6949 31.237 15.6949 31.3562C15.6373 31.8572 15.6051 32.3608 15.5983 32.8651C15.5605 33.1345 15.5605 33.3729 15.5605 33.6375C15.5641 36.0421 16.2087 38.4013 17.4266 40.4668C18.6444 42.5322 20.3905 44.2275 22.4809 45.3742C24.5714 46.5209 26.929 47.0766 29.3054 46.9828C31.6819 46.8891 33.9895 46.1493 35.9852 44.8413C36.0337 44.8234 36.0752 44.7899 36.1031 44.7459C36.538 44.4782 36.9498 44.1735 37.3338 43.8353C37.4304 43.74 37.5247 43.6685 37.6191 43.5731C39.0061 42.3271 40.1157 40.7975 40.8745 39.0855C41.6333 37.3736 42.0241 35.5183 42.0209 33.6423C42.0256 33.2537 42.002 32.92 41.9784 32.5838ZM36.1785 42.467C36.037 42.5862 35.872 42.7316 35.707 42.8508C35.4874 43.0227 35.2583 43.1819 35.0209 43.3276C34.6951 43.543 34.3548 43.735 34.0024 43.9021C32.3992 44.7607 30.6107 45.2046 28.7966 45.1941C25.763 45.1935 22.8534 43.9765 20.7058 41.8101C18.5583 39.6437 17.3481 36.7047 17.3406 33.6375C17.3367 33.406 17.3446 33.1745 17.3642 32.9438V32.7054C17.3878 32.2978 17.4113 31.914 17.4349 31.5564C17.4821 31.2442 17.5056 30.9343 17.5787 30.622C17.597 30.4128 17.6285 30.205 17.673 29.9998C18.3591 26.6983 19.8256 25.3586 20.4174 24.9509C20.6296 26.0761 21.5774 29.6422 24.4891 30.2883L25.576 30.5028V29.4015C25.576 27.6065 25.6727 24.9271 26.2385 22.5838C26.4074 21.9306 26.6298 21.2927 26.9034 20.6768C26.9505 20.5576 27.0213 20.4146 27.0684 20.2954C27.2334 19.9116 27.4221 19.554 27.613 19.1941C27.6193 19.1941 27.6253 19.1916 27.6297 19.1871C27.6341 19.1826 27.6366 19.1766 27.6366 19.1703C28.7276 17.1373 30.227 15.3575 32.0384 13.945C32.1563 17.2465 33.8609 19.5683 35.6834 22.0499C36.6052 23.3181 37.5695 24.6339 38.357 26.1405C38.6296 26.6534 38.8744 27.181 39.0903 27.7209C39.3105 28.2569 39.4925 28.8082 39.6349 29.3705C39.7056 29.5874 39.7763 29.8258 39.8235 30.0403C39.9926 30.8055 40.1116 31.5811 40.1795 32.3622L40.2031 32.6983C40.2267 33.0082 40.2502 33.2966 40.2502 33.6303C40.2493 35.3143 39.8844 36.9776 39.181 38.504C38.4777 40.0304 37.453 41.383 36.1785 42.467Z" fill="#C32E18"/>
<path d="M18.1205 18.6031C19.1622 18.6031 20.0067 17.7493 20.0067 16.6961C20.0067 15.6429 19.1622 14.7891 18.1205 14.7891C17.0788 14.7891 16.2344 15.6429 16.2344 16.6961C16.2344 17.7493 17.0788 18.6031 18.1205 18.6031Z" fill="white"/>
<path d="M42.351 47.4157C43.3927 47.4157 44.2371 46.5619 44.2371 45.5087C44.2371 44.4555 43.3927 43.6017 42.351 43.6017C41.3093 43.6017 40.4648 44.4555 40.4648 45.5087C40.4648 46.5619 41.3093 47.4157 42.351 47.4157Z" fill="white"/>
<path d="M41.2915 28.7078C41.3997 29.0127 41.4864 29.325 41.5508 29.6422C41.7033 30.2631 41.8066 30.8952 41.8597 31.5326C46.8768 36.6768 48.9115 41.2942 47.4922 43.4015C46.3134 45.1464 42.6165 45.268 37.6229 43.5683C36.972 43.3643 36.3322 43.1256 35.7061 42.8532C32.0948 41.3598 28.659 39.465 25.462 37.2036C22.6397 35.2611 20.0019 33.0577 17.5826 30.622C17.038 30.0713 16.5405 29.5469 16.0902 29.0201C12.0821 24.4742 10.5756 20.5004 11.8464 18.6339C12.4617 17.7257 13.7632 17.2465 15.5621 17.2465C17.6227 17.2465 20.3435 17.8687 23.4674 19.113C24.0592 19.3514 24.6745 19.616 25.3135 19.9021C25.3502 19.7712 25.3975 19.6437 25.4549 19.5207C25.6223 19.1607 25.8109 18.7769 25.9995 18.4194C18.7096 15.1178 12.5607 14.6387 10.4978 17.7042C8.53382 20.5505 10.7595 25.6947 15.7059 31.032C16.2482 31.5826 16.7928 32.1571 17.3563 32.7006C19.5939 34.8386 21.9917 36.7984 24.5284 38.5624C27.5026 40.651 30.6733 42.438 33.9945 43.8973C34.7018 44.2096 35.4091 44.4956 36.0999 44.7364C38.988 45.8115 41.6145 46.3622 43.7694 46.3622C46.1106 46.3622 47.8859 45.7161 48.8337 44.3288C49.3144 43.6002 49.5613 42.7395 49.541 41.8639C49.5505 38.4003 46.4454 33.4944 41.2915 28.7078Z" fill="white"/>
<path d="M72.7537 38.9701C72.9098 39.1373 72.9945 39.36 72.9895 39.5899C72.9895 39.8406 72.898 40.0825 72.7325 40.2692C72.5384 40.4799 72.2953 40.6381 72.0252 40.7293C71.6994 40.8439 71.3563 40.9004 71.0114 40.8962C70.699 40.8972 70.388 40.8547 70.0872 40.7698C69.8026 40.6931 69.5314 40.5725 69.2832 40.4123L69.519 39.8163C69.7378 39.9543 69.9764 40.0572 70.2263 40.1215C70.484 40.1952 70.7506 40.2329 71.0185 40.2335C71.3199 40.2476 71.6198 40.1819 71.8885 40.0428C71.9842 39.9956 72.065 39.9225 72.122 39.8316C72.1791 39.7407 72.21 39.6355 72.2115 39.5279C72.2134 39.4337 72.19 39.3408 72.144 39.259C72.0979 39.1772 72.0308 39.1095 71.9498 39.063C71.7245 38.9453 71.472 38.891 71.2189 38.9057H70.422V38.3431H71.1434C71.3793 38.3565 71.6143 38.3037 71.8224 38.1906C71.8977 38.1495 71.9604 38.0886 72.004 38.0143C72.0476 37.94 72.0704 37.8551 72.07 37.7686C72.0696 37.6727 72.0418 37.5789 71.9899 37.4986C71.938 37.4182 71.8643 37.3547 71.7776 37.3157C71.5323 37.197 71.262 37.1406 70.9902 37.1512C70.5251 37.1614 70.0683 37.2771 69.6534 37.4897L69.4459 36.889C69.9479 36.6262 70.505 36.4888 71.0703 36.4885C71.3829 36.4853 71.6937 36.5353 71.9898 36.6363C72.2338 36.7174 72.4541 36.8583 72.6311 37.0464C72.7827 37.2127 72.8668 37.4305 72.8669 37.6566C72.8678 37.8641 72.794 38.0649 72.6594 38.2216C72.508 38.3971 72.3137 38.5294 72.0959 38.6054C72.345 38.6613 72.5731 38.7878 72.7537 38.9701Z" fill="#101D23"/>
<path d="M77.016 36.9485C77.1815 37.1202 77.3091 37.3254 77.3904 37.5505C77.4717 37.7757 77.5048 38.0158 77.4876 38.2549V40.846H76.759V40.2763C76.625 40.4803 76.4348 40.6402 76.2121 40.7364C75.9435 40.8467 75.6555 40.9003 75.3657 40.8937C74.9569 40.9145 74.5537 40.7915 74.2245 40.5457C74.0864 40.4384 73.9754 40.2995 73.9008 40.1403C73.8262 39.9812 73.7901 39.8063 73.7954 39.6303C73.7903 39.4568 73.8244 39.2844 73.8951 39.1262C73.9657 38.968 74.0712 38.8281 74.2033 38.7173C74.4768 38.4908 74.9106 38.3764 75.5024 38.3764H76.719V38.2239C76.7285 38.082 76.7075 37.9397 76.6575 37.8067C76.6074 37.6738 76.5294 37.5534 76.429 37.4539C76.1902 37.2584 75.8867 37.162 75.5802 37.1845C75.3298 37.185 75.0812 37.2277 74.8446 37.3109C74.6229 37.3847 74.4166 37.4995 74.2363 37.6494L73.9157 37.0653C74.1485 36.8778 74.4151 36.7377 74.7008 36.6529C75.0149 36.5569 75.3416 36.5095 75.6698 36.5123C76.157 36.4797 76.6383 36.6357 77.016 36.9485ZM76.2521 40.0975C76.4668 39.9682 76.6327 39.7702 76.7237 39.5349V38.9271H75.5448C74.8941 38.9271 74.5688 39.148 74.5688 39.5898C74.563 39.6883 74.5816 39.7866 74.6227 39.8761C74.6639 39.9655 74.7263 40.0433 74.8045 40.1023C75.0084 40.2371 75.2499 40.3015 75.493 40.2858C75.759 40.2928 76.0218 40.2252 76.2521 40.0904V40.0975Z" fill="#101D23"/>
<path d="M82.5907 39.659C82.598 39.8288 82.5632 39.9978 82.4895 40.1506C82.4158 40.3034 82.3055 40.4351 82.1687 40.5339C81.7927 40.7642 81.3552 40.8709 80.9167 40.839H78.875V36.5482H80.8437C81.2566 36.5231 81.6674 36.6245 82.0225 36.839C82.1577 36.9242 82.2681 37.0441 82.3426 37.1864C82.4172 37.3288 82.4531 37.4885 82.4469 37.6495C82.452 37.8602 82.3891 38.0669 82.2677 38.2383C82.14 38.411 81.9656 38.5427 81.7655 38.6173C82.0064 38.6565 82.2242 38.7848 82.3767 38.9773C82.5292 39.1698 82.6055 39.4128 82.5907 39.659ZM79.6271 38.3956H80.78C81.0143 38.4086 81.2472 38.3513 81.4496 38.2311C81.5266 38.1793 81.5888 38.1081 81.6302 38.0244C81.6715 37.9408 81.6906 37.8477 81.6853 37.7544C81.6853 37.3428 81.3867 37.137 80.7894 37.137H79.6365L79.6271 38.3956ZM81.5793 40.0857C81.6571 40.0348 81.72 39.9637 81.7615 39.8799C81.803 39.796 81.8215 39.7025 81.815 39.6089C81.8213 39.5149 81.8044 39.4208 81.7657 39.3351C81.727 39.2493 81.6678 39.1747 81.5934 39.1179C81.3844 38.993 81.1423 38.9364 80.9002 38.9558H79.62V40.2406H80.8696C81.115 40.2559 81.3597 40.2022 81.5769 40.0857H81.5793Z" fill="#101D23"/>
<path d="M84.4732 40.6007C84.1424 40.4215 83.8686 40.1512 83.6834 39.8212C83.4977 39.4746 83.4004 39.0867 83.4004 38.6925C83.4004 38.2983 83.4977 37.9104 83.6834 37.5638C83.8688 37.2351 84.1427 36.9665 84.4732 36.789C84.8232 36.6028 85.2129 36.5055 85.6084 36.5055C86.004 36.5055 86.3936 36.6028 86.7436 36.789C87.0724 36.9673 87.3445 37.2359 87.5288 37.5638C87.7159 37.9099 87.814 38.298 87.814 38.6925C87.814 39.087 87.7159 39.4751 87.5288 39.8212C87.3447 40.1505 87.0726 40.4207 86.7436 40.6007C86.3941 40.7886 86.0043 40.8868 85.6084 40.8868C85.2126 40.8868 84.8228 40.7886 84.4732 40.6007ZM86.3428 40.0167C86.5591 39.8899 86.7356 39.704 86.8521 39.4803C86.9731 39.2357 87.0361 38.966 87.0361 38.6925C87.0361 38.419 86.9731 38.1493 86.8521 37.9047C86.7354 37.6824 86.5588 37.4981 86.3428 37.3731C86.1189 37.247 85.8658 37.1837 85.6096 37.1895C85.354 37.1828 85.1015 37.2462 84.8787 37.3731C84.6614 37.4979 84.4832 37.6821 84.3647 37.9047C84.2423 38.1488 84.1785 38.4187 84.1785 38.6925C84.1785 38.9663 84.2423 39.2362 84.3647 39.4803C84.4831 39.7042 84.6611 39.8901 84.8787 40.0167C85.1011 40.1453 85.3535 40.2111 85.6096 40.2074C85.8664 40.2108 86.1195 40.145 86.3428 40.0167Z" fill="#101D23"/>
<path d="M93.2069 40.1596V41.8283H92.4878V40.8342H88.9371V41.8283H88.2109V40.1596H88.4349C88.706 40.1429 88.9065 39.9498 88.996 39.5756C89.1185 39.0573 89.188 38.5277 89.2035 37.9951L89.2648 36.5458H92.5656V40.1596H93.2069ZM89.7764 39.3968C89.7398 39.6844 89.6115 39.9522 89.411 40.1596H91.7899V37.2252H89.9485L89.9061 38.0523C89.8942 38.503 89.8509 38.9523 89.7764 39.3968Z" fill="#101D23"/>
<path d="M100.293 36.5458V40.8366H99.5245V37.2252H97.1338V40.839H96.3652V36.5482L100.293 36.5458Z" fill="#101D23"/>
<path d="M102.463 40.6006C102.133 40.4212 101.86 40.151 101.676 39.8211C101.489 39.475 101.391 39.0869 101.391 38.6924C101.391 38.2979 101.489 37.9098 101.676 37.5637C101.86 37.2352 102.134 36.9665 102.463 36.7889C102.812 36.5961 103.205 36.4984 103.602 36.5053C103.998 36.498 104.389 36.5958 104.736 36.7889C105.065 36.9667 105.336 37.2354 105.519 37.5637C105.708 37.9093 105.807 38.2976 105.807 38.6924C105.807 39.0872 105.708 39.4755 105.519 39.8211C105.336 40.1508 105.065 40.4211 104.736 40.6006C104.389 40.7945 103.998 40.8931 103.602 40.8867C103.204 40.8928 102.812 40.7943 102.463 40.6006ZM104.333 40.0166C104.55 39.8898 104.727 39.7039 104.845 39.4802C104.964 39.2351 105.026 38.9656 105.026 38.6924C105.026 38.4192 104.964 38.1496 104.845 37.9045C104.727 37.6821 104.55 37.4978 104.333 37.373C104.108 37.2525 103.857 37.1896 103.602 37.1896C103.347 37.1896 103.096 37.2525 102.871 37.373C102.654 37.4978 102.476 37.682 102.357 37.9045C102.233 38.1483 102.169 38.4184 102.169 38.6924C102.169 38.9664 102.233 39.2365 102.357 39.4802C102.476 39.7041 102.654 39.8899 102.871 40.0166C103.095 40.1416 103.346 40.2072 103.602 40.2072C103.858 40.2072 104.109 40.1416 104.333 40.0166Z" fill="#101D23"/>
<path d="M113.003 36.5458V40.8366H112.234V37.2252H109.839V40.839H109.07V36.5482L113.003 36.5458Z" fill="#101D23"/>
<path d="M117.847 36.7844C118.169 36.9627 118.434 37.2286 118.613 37.5519C118.795 37.9051 118.889 38.2971 118.889 38.695C118.889 39.0928 118.795 39.4848 118.613 39.838C118.434 40.1633 118.169 40.4316 117.847 40.6127C117.508 40.7994 117.127 40.8938 116.741 40.8869C116.454 40.8904 116.169 40.8293 115.907 40.7081C115.653 40.591 115.432 40.4135 115.261 40.1908V42.4077H114.492V36.546H115.23V37.2254C115.395 36.9916 115.619 36.8064 115.879 36.689C116.149 36.5648 116.444 36.5021 116.741 36.5054C117.128 36.4988 117.509 36.595 117.847 36.7844ZM117.411 40.0168C117.628 39.8894 117.806 39.7038 117.925 39.4804C118.049 39.2367 118.114 38.9666 118.114 38.6926C118.114 38.4185 118.049 38.1485 117.925 37.9047C117.806 37.6827 117.628 37.4986 117.411 37.3731C117.187 37.2511 116.937 37.1872 116.682 37.1872C116.428 37.1872 116.178 37.2511 115.954 37.3731C115.738 37.4975 115.56 37.6798 115.44 37.9C115.311 38.1431 115.247 38.4158 115.254 38.6914C115.249 38.9643 115.312 39.2341 115.438 39.4757C115.555 39.7006 115.733 39.8867 115.952 40.012C116.175 40.137 116.426 40.2026 116.681 40.2026C116.937 40.2026 117.188 40.137 117.411 40.012V40.0168Z" fill="#101D23"/>
<path d="M120.686 40.6007C120.355 40.4214 120.081 40.1512 119.896 39.8212C119.711 39.4746 119.613 39.0866 119.613 38.6924C119.613 38.2982 119.711 37.9103 119.896 37.5637C120.082 37.235 120.356 36.9664 120.686 36.789C121.035 36.5958 121.427 36.498 121.825 36.5053C122.22 36.4977 122.61 36.5956 122.957 36.789C123.286 36.9666 123.558 37.2353 123.742 37.5637C123.929 37.9098 124.027 38.298 124.027 38.6924C124.027 39.0869 123.929 39.475 123.742 39.8212C123.558 40.1509 123.286 40.4212 122.957 40.6007C122.611 40.7949 122.22 40.8935 121.825 40.8867C121.427 40.8932 121.035 40.7946 120.686 40.6007ZM122.556 40.0166C122.773 39.8898 122.95 39.704 123.067 39.4803C123.187 39.2352 123.249 38.9656 123.249 38.6924C123.249 38.4192 123.187 38.1497 123.067 37.9046C122.95 37.6822 122.772 37.4979 122.556 37.373C122.33 37.2525 122.079 37.1896 121.824 37.1896C121.569 37.1896 121.317 37.2525 121.092 37.373C120.875 37.4986 120.698 37.6827 120.58 37.9046C120.456 38.1483 120.391 38.4184 120.391 38.6924C120.391 38.9665 120.456 39.2365 120.58 39.4803C120.698 39.7035 120.875 39.8892 121.092 40.0166C121.316 40.1416 121.568 40.2072 121.824 40.2072C122.08 40.2072 122.332 40.1416 122.556 40.0166Z" fill="#101D23"/>
<path d="M125.138 36.5458H125.899V39.6757L128.493 36.5458H129.2V40.8366H128.432V37.7138L125.838 40.8366H125.131L125.138 36.5458Z" fill="#101D23"/>
<path d="M133.578 38.9701C133.656 39.0526 133.717 39.1498 133.757 39.2562C133.798 39.3626 133.817 39.476 133.814 39.5899C133.814 39.8411 133.722 40.0834 133.555 40.2692C133.361 40.4808 133.118 40.6391 132.847 40.7293C132.522 40.8439 132.179 40.9004 131.834 40.8962C131.521 40.8972 131.21 40.8547 130.909 40.7698C130.625 40.6931 130.354 40.5725 130.105 40.4123L130.341 39.8163C130.56 39.9548 130.798 40.0577 131.049 40.1215C131.306 40.1952 131.573 40.2329 131.841 40.2335C132.142 40.2476 132.442 40.1819 132.711 40.0428C132.806 39.9956 132.887 39.9225 132.944 39.8316C133.001 39.7407 133.032 39.6355 133.034 39.5279C133.036 39.4337 133.012 39.3408 132.966 39.259C132.92 39.1772 132.853 39.1095 132.772 39.063C132.547 38.9453 132.294 38.891 132.041 38.9057H131.265V38.3431H131.987C132.223 38.3565 132.458 38.3037 132.666 38.1906C132.739 38.148 132.799 38.0864 132.841 38.0122C132.882 37.938 132.903 37.8539 132.902 37.7686C132.901 37.6727 132.873 37.5789 132.822 37.4986C132.77 37.4182 132.696 37.3547 132.609 37.3157C132.364 37.1973 132.094 37.1409 131.822 37.1512C131.357 37.1614 130.9 37.2771 130.485 37.4897L130.275 36.889C130.778 36.6268 131.336 36.4895 131.902 36.4885C132.215 36.4853 132.525 36.5353 132.822 36.6363C133.065 36.7174 133.286 36.8583 133.463 37.0464C133.614 37.2127 133.699 37.4305 133.699 37.6566C133.699 37.8641 133.626 38.0649 133.491 38.2216C133.339 38.3966 133.145 38.5288 132.928 38.6054C133.175 38.6616 133.4 38.7882 133.578 38.9701Z" fill="#101D23"/>
<path d="M138.7 39.659C138.708 39.8289 138.673 39.998 138.599 40.1509C138.526 40.3037 138.415 40.4354 138.278 40.5339C137.902 40.7642 137.465 40.8709 137.026 40.839H134.984V36.5482H136.953C137.366 36.5231 137.777 36.6245 138.132 36.839C138.267 36.9242 138.377 37.0441 138.452 37.1864C138.527 37.3288 138.563 37.4885 138.556 37.6495C138.561 37.8602 138.498 38.0669 138.377 38.2383C138.25 38.4094 138.076 38.5394 137.877 38.6125C138.119 38.6523 138.337 38.7815 138.489 38.975C138.641 39.1685 138.716 39.4124 138.7 39.659ZM135.736 38.3956H136.889C137.124 38.4086 137.357 38.3513 137.559 38.2311C137.636 38.1792 137.698 38.1079 137.739 38.0243C137.781 37.9407 137.8 37.8477 137.795 37.7544C137.795 37.342 137.493 37.137 136.896 37.137H135.744L135.736 38.3956ZM137.691 40.0857C137.769 40.0346 137.831 39.9635 137.873 39.8797C137.914 39.7959 137.933 39.7024 137.927 39.6089C137.933 39.5149 137.916 39.4208 137.877 39.3351C137.839 39.2493 137.78 39.1747 137.705 39.1179C137.497 38.9934 137.256 38.9369 137.014 38.9558H135.732V40.2406H136.984C137.229 40.2556 137.474 40.202 137.691 40.0857Z" fill="#101D23"/>
<path d="M140.583 40.6007C140.252 40.4214 139.978 40.1512 139.793 39.8212C139.607 39.4746 139.51 39.0866 139.51 38.6924C139.51 38.2982 139.607 37.9103 139.793 37.5637C139.978 37.235 140.252 36.9664 140.583 36.789C140.931 36.5958 141.324 36.498 141.721 36.5053C142.117 36.4977 142.507 36.5956 142.853 36.789C143.182 36.9666 143.455 37.2353 143.638 37.5637C143.825 37.9098 143.923 38.298 143.923 38.6924C143.923 39.0869 143.825 39.475 143.638 39.8212C143.455 40.1509 143.182 40.4212 142.853 40.6007C142.507 40.7949 142.117 40.8935 141.721 40.8867C141.324 40.8932 140.931 40.7946 140.583 40.6007ZM142.452 40.0166C142.669 39.8898 142.846 39.704 142.964 39.4803C143.083 39.2352 143.145 38.9656 143.145 38.6924C143.145 38.4192 143.083 38.1497 142.964 37.9046C142.846 37.6822 142.669 37.4979 142.452 37.373C142.227 37.2525 141.975 37.1896 141.72 37.1896C141.465 37.1896 141.214 37.2525 140.988 37.373C140.772 37.4986 140.595 37.6827 140.476 37.9046C140.353 38.1483 140.288 38.4184 140.288 38.6924C140.288 38.9665 140.353 39.2365 140.476 39.4803C140.595 39.7035 140.772 39.8892 140.988 40.0166C141.212 40.1416 141.464 40.2072 141.72 40.2072C141.976 40.2072 142.228 40.1416 142.452 40.0166Z" fill="#101D23"/>
<path d="M149.312 40.1596V41.8283H148.605V40.8342H145.068V41.8283H144.34V40.1596H144.576C144.847 40.1429 145.035 39.9498 145.137 39.5756C145.259 39.0573 145.329 38.5277 145.344 37.9951L145.408 36.5458H148.709V40.1596H149.312ZM145.882 39.3968C145.847 39.6845 145.719 39.9525 145.519 40.1596H147.895V37.2252H146.054L146.011 38.0523C146.001 38.5031 145.957 38.9524 145.882 39.3968Z" fill="#101D23"/>
<path d="M151.006 40.6007C150.674 40.4211 150.398 40.1511 150.209 39.8212C150.021 39.4756 149.922 39.0872 149.922 38.6925C149.922 38.2977 150.021 37.9094 150.209 37.5637C150.398 37.2352 150.674 36.9668 151.006 36.789C151.362 36.595 151.76 36.4973 152.164 36.5053C152.521 36.4994 152.873 36.5812 153.192 36.7437C153.49 36.8929 153.737 37.1298 153.899 37.4231L153.317 37.8021C153.194 37.6082 153.022 37.4504 152.819 37.3444C152.617 37.2401 152.392 37.1878 152.164 37.1919C151.902 37.1858 151.644 37.2491 151.414 37.3754C151.193 37.497 151.011 37.6797 150.888 37.9022C150.759 38.1452 150.694 38.4178 150.7 38.6937C150.695 38.9702 150.76 39.2434 150.888 39.4875C151.008 39.7108 151.188 39.8951 151.407 40.0191C151.638 40.144 151.895 40.208 152.157 40.205C152.384 40.2069 152.609 40.1546 152.812 40.0524C153.015 39.9438 153.187 39.7836 153.31 39.5876L153.892 39.9618C153.73 40.257 153.484 40.4955 153.185 40.646C152.867 40.8096 152.514 40.8914 152.157 40.8844C151.756 40.8912 151.359 40.7935 151.006 40.6007Z" fill="#101D23"/>
<path d="M157.996 37.2252H156.442V40.839H155.673V37.2252H154.117V36.5458H157.996V37.2252Z" fill="#101D23"/>
<path d="M162.495 39.659C162.503 39.8289 162.468 39.998 162.394 40.1509C162.321 40.3037 162.21 40.4354 162.073 40.5339C161.697 40.7642 161.26 40.8709 160.821 40.839H158.779V36.5482H160.748C161.161 36.5231 161.572 36.6245 161.927 36.839C162.062 36.9242 162.172 37.0441 162.247 37.1864C162.321 37.3288 162.357 37.4885 162.351 37.6495C162.356 37.8602 162.293 38.0669 162.172 38.2383C162.045 38.4094 161.871 38.5394 161.672 38.6125C161.913 38.6523 162.131 38.7815 162.284 38.975C162.436 39.1685 162.511 39.4124 162.495 39.659ZM159.531 38.3956H160.687C160.92 38.4089 161.153 38.3517 161.354 38.2311C161.431 38.1795 161.493 38.1083 161.535 38.0246C161.576 37.9409 161.595 37.8477 161.59 37.7544C161.59 37.3428 161.291 37.137 160.694 37.137H159.538L159.531 38.3956ZM161.486 40.0857C161.564 40.0346 161.626 39.9635 161.668 39.8797C161.709 39.7959 161.728 39.7024 161.722 39.6089C161.728 39.5152 161.711 39.4212 161.673 39.3356C161.635 39.2499 161.576 39.1751 161.502 39.1179C161.293 38.993 161.051 38.9364 160.809 38.9558H159.527V40.2406H160.762C161.017 40.261 161.272 40.2073 161.498 40.0857H161.486Z" fill="#101D23"/>
<path d="M167.484 36.5457L165.425 41.2656C165.302 41.6256 165.085 41.9456 164.798 42.1929C164.541 42.3737 164.232 42.4657 163.919 42.4552C163.714 42.4566 163.509 42.4228 163.315 42.355C163.138 42.2959 162.976 42.1955 162.844 42.0618L163.148 41.4778C163.247 41.5789 163.366 41.659 163.496 41.7134C163.626 41.7679 163.766 41.7955 163.907 41.7948C164.076 41.8026 164.243 41.7503 164.379 41.647C164.532 41.5052 164.65 41.3277 164.72 41.1298L164.855 40.8294L162.969 36.5386H163.77L165.27 39.9808L166.734 36.5457H167.484Z" fill="#101D23"/>
<path d="M70.4797 50.3097C70.1504 50.1284 69.8771 49.8586 69.6899 49.5302C69.505 49.1829 69.4082 48.7947 69.4082 48.4003C69.4082 48.0059 69.505 47.6176 69.6899 47.2704C69.876 46.9423 70.1497 46.6738 70.4797 46.4956C70.8285 46.3028 71.221 46.205 71.6185 46.212C72.0138 46.2044 72.4041 46.3022 72.7502 46.4956C73.0793 46.6732 73.3517 46.942 73.5353 47.2704C73.7224 47.6169 73.8205 48.0054 73.8205 48.4003C73.8205 48.7951 73.7224 49.1836 73.5353 49.5302C73.3505 49.8589 73.0786 50.1289 72.7502 50.3097C72.4037 50.502 72.0137 50.5998 71.6185 50.5934C71.2211 50.5992 70.8289 50.5015 70.4797 50.3097ZM72.3494 49.7233C72.5662 49.5965 72.7435 49.4106 72.861 49.1869C72.9804 48.9418 73.0425 48.6723 73.0425 48.3991C73.0425 48.1259 72.9804 47.8563 72.861 47.6112C72.7434 47.3888 72.5661 47.2045 72.3494 47.0797C72.1237 46.9592 71.8724 46.8962 71.6173 46.8962C71.3621 46.8962 71.1109 46.9592 70.8852 47.0797C70.6691 47.2052 70.4919 47.3893 70.3736 47.6112C70.2497 47.855 70.1851 48.1251 70.1851 48.3991C70.1851 48.6731 70.2497 48.9432 70.3736 49.1869C70.4917 49.4102 70.6688 49.5959 70.8852 49.7233C71.1094 49.8483 71.3613 49.9138 71.6173 49.9138C71.8733 49.9138 72.1252 49.8483 72.3494 49.7233Z" fill="#101D23"/>
<path d="M78.056 46.9319H75.6983V50.5362H74.9297V46.2454H78.0536L78.056 46.9319Z" fill="#101D23"/>
<path d="M78.834 46.2454H79.6026V48.069H82.0216V46.2454H82.7902V50.5362H82.0216V48.7412H79.6026V50.5362H78.834V46.2454Z" fill="#101D23"/>
<path d="M88.1144 48.6601H84.6698C84.6885 48.8375 84.742 49.0093 84.827 49.1656C84.912 49.322 85.0268 49.4596 85.1649 49.5707C85.4627 49.805 85.8322 49.9264 86.2093 49.914C86.4382 49.9226 86.6662 49.8808 86.8775 49.7915C87.0887 49.7022 87.2783 49.5674 87.433 49.3967L87.8574 49.8973C87.6662 50.1248 87.4236 50.3022 87.1501 50.4146C86.8468 50.5382 86.5221 50.599 86.1952 50.5934C85.78 50.6029 85.369 50.507 84.9998 50.3145C84.6634 50.1371 84.3838 49.8668 84.1935 49.535C84.01 49.1872 83.9141 48.7992 83.9141 48.405C83.9141 48.0109 84.01 47.6229 84.1935 47.2751C84.3677 46.9473 84.6312 46.6768 84.9527 46.4956C85.2853 46.3029 85.6634 46.2049 86.0467 46.212C86.4278 46.2044 86.8037 46.3025 87.1336 46.4956C87.4512 46.6771 87.71 46.9479 87.8786 47.2751C88.0621 47.6293 88.1545 48.0244 88.1474 48.4241C88.1409 48.5034 88.1298 48.5822 88.1144 48.6601ZM85.113 47.2108C84.8622 47.4421 84.7065 47.7603 84.6768 48.1023H87.4C87.3697 47.7605 87.2141 47.4425 86.9638 47.2108C86.7046 46.9905 86.377 46.8698 86.0384 46.8698C85.6999 46.8698 85.3722 46.9905 85.113 47.2108Z" fill="#101D23"/>
<path d="M90.0165 50.3097C89.6843 50.13 89.4083 49.86 89.2196 49.5302C89.0295 49.1847 88.9297 48.7958 88.9297 48.4003C88.9297 48.0049 89.0295 47.616 89.2196 47.2704C89.407 46.9408 89.6835 46.6721 90.0165 46.4957C90.3709 46.3017 90.7689 46.2039 91.1718 46.212C91.5292 46.2061 91.8828 46.2879 92.2021 46.4504C92.5002 46.5996 92.7467 46.8364 92.9094 47.1298L92.3247 47.5088C92.2013 47.3149 92.0298 47.1571 91.8272 47.0511C91.6244 46.9468 91.3993 46.8944 91.1718 46.8985C90.9111 46.8927 90.6534 46.9559 90.4244 47.0821C90.204 47.2052 90.0231 47.3897 89.9033 47.6137C89.774 47.8566 89.709 48.1293 89.7147 48.4051C89.7097 48.6816 89.7746 48.9549 89.9033 49.1989C90.0225 49.4233 90.2035 49.608 90.4244 49.7305C90.654 49.8551 90.9111 49.9191 91.1718 49.9164C91.3991 49.9183 91.6236 49.866 91.8272 49.7639C92.0301 49.6552 92.2016 49.495 92.3247 49.299L92.9094 49.6733C92.7464 49.9676 92.5001 50.2058 92.2021 50.3574C91.8832 50.521 91.5294 50.6029 91.1718 50.5958C90.7688 50.6018 90.3711 50.5034 90.0165 50.3097Z" fill="#101D23"/>
<path d="M97.0054 46.9319H95.4493V50.5362H94.6807V46.9319H93.127V46.2454H97.0054V46.9319Z" fill="#101D23"/>
<path d="M98.2864 50.3097C97.9571 50.1284 97.6837 49.8586 97.4965 49.5302C97.3116 49.1829 97.2148 48.7946 97.2148 48.4002C97.2148 48.0058 97.3116 47.6176 97.4965 47.2703C97.6826 46.9422 97.9564 46.6737 98.2864 46.4956C98.6352 46.3028 99.0276 46.205 99.4251 46.2119C99.8212 46.2046 100.212 46.3024 100.559 46.4956C100.887 46.674 101.159 46.9426 101.342 47.2703C101.531 47.6164 101.629 48.0051 101.629 48.4002C101.629 48.7954 101.531 49.1841 101.342 49.5302C101.157 49.8583 100.886 50.1281 100.559 50.3097C100.212 50.5017 99.821 50.5994 99.4251 50.5933C99.0277 50.5992 98.6356 50.5015 98.2864 50.3097ZM100.156 49.7233C100.373 49.5965 100.55 49.4106 100.668 49.1869C100.787 48.9418 100.849 48.6723 100.849 48.3991C100.849 48.1259 100.787 47.8563 100.668 47.6112C100.55 47.3888 100.373 47.2045 100.156 47.0796C99.9308 46.9592 99.6799 46.8962 99.4251 46.8962C99.1703 46.8962 98.9194 46.9592 98.6942 47.0796C98.4769 47.2045 98.2988 47.3887 98.1803 47.6112C98.0564 47.8549 97.9917 48.125 97.9917 48.3991C97.9917 48.6731 98.0564 48.9432 98.1803 49.1869C98.2986 49.4108 98.4766 49.5966 98.6942 49.7233C98.918 49.8483 99.1695 49.9138 99.4251 49.9138C99.6808 49.9138 99.9322 49.8483 100.156 49.7233Z" fill="#101D23"/>
<path d="M102.735 46.2454H103.499V49.3754L106.093 46.2454H106.8V50.5363H106.031V47.4135L103.438 50.5363H102.73L102.735 46.2454ZM103.801 45.404C103.689 45.2983 103.6 45.1691 103.543 45.0254C103.485 44.8817 103.459 44.727 103.466 44.572H103.987C103.986 44.6615 104.003 44.7502 104.038 44.8323C104.073 44.9145 104.125 44.9883 104.19 45.0488C104.334 45.1761 104.522 45.2419 104.713 45.2323C104.906 45.2415 105.095 45.1758 105.241 45.0488C105.308 44.9889 105.36 44.9154 105.396 44.8331C105.432 44.7509 105.45 44.6619 105.449 44.572H105.986C105.993 44.7278 105.966 44.8832 105.907 45.027C105.847 45.1709 105.757 45.2996 105.642 45.404C105.379 45.6056 105.053 45.7062 104.723 45.6876C104.393 45.71 104.065 45.6119 103.801 45.4111V45.404Z" fill="#101D23"/>
<path d="M109.943 48.734H109.064V50.5362H108.295V46.2454H109.064V48.0642H109.962L111.336 46.2454H112.162L110.554 48.3097L112.275 50.5386H111.369L109.943 48.734Z" fill="#101D23"/>
<path d="M113.082 46.2454H113.851V49.3753L116.444 46.2454H117.151V50.5362H116.383V47.4134L113.789 50.5362H113.082V46.2454Z" fill="#101D23"/>
<path d="M121.293 50.5362L120.067 48.8938L118.827 50.5362H117.971L119.642 48.3407L118.049 46.2454H118.904L120.083 47.7948L121.246 46.2454H122.087L120.486 48.3431L122.177 50.5386L121.293 50.5362Z" fill="#101D23"/>
<path d="M129.063 46.2454V50.5362H128.295V46.9319H125.899V50.5362H125.131V46.2454H129.063Z" fill="#101D23"/>
<path d="M133.414 46.6483C133.58 46.8202 133.707 47.0254 133.788 47.2506C133.869 47.4757 133.903 47.7156 133.886 47.9546V50.5363H133.155V49.9665C133.022 50.1715 132.832 50.3317 132.608 50.4266C132.34 50.537 132.052 50.5905 131.762 50.5839C131.353 50.604 130.95 50.4811 130.621 50.2359C130.483 50.1281 130.373 49.989 130.299 49.83C130.225 49.6709 130.189 49.4963 130.194 49.3205C130.189 49.147 130.223 48.9747 130.294 48.8165C130.364 48.6583 130.47 48.5185 130.602 48.4075C130.875 48.1692 131.309 48.0667 131.901 48.0667H133.117V47.9141C133.127 47.7722 133.106 47.6299 133.056 47.497C133.006 47.3641 132.928 47.2437 132.827 47.1441C132.588 46.9488 132.285 46.8525 131.979 46.8748C131.727 46.8754 131.478 46.9181 131.241 47.0011C131.02 47.0752 130.814 47.1899 130.635 47.3396L130.314 46.7556C130.547 46.5675 130.813 46.4274 131.099 46.3432C131.413 46.2472 131.74 46.1997 132.068 46.2025C132.557 46.1726 133.038 46.332 133.414 46.6483ZM132.651 49.7973C132.865 49.6679 133.031 49.47 133.122 49.2347V48.6292H131.943C131.293 48.6292 130.967 48.8501 130.967 49.2919C130.963 49.3915 130.983 49.4905 131.026 49.5801C131.07 49.6696 131.134 49.7467 131.215 49.8044C131.418 49.9394 131.658 50.0038 131.901 49.988C132.163 49.9943 132.422 49.9284 132.651 49.7973Z" fill="#101D23"/>
<path d="M135.268 46.2454H136.039V48.069H138.46V46.2454H139.226V50.5362H138.46V48.7412H136.039V50.5362H135.27L135.268 46.2454Z" fill="#101D23"/>
<path d="M144.544 48.6601H141.099C141.118 48.8375 141.172 49.0093 141.257 49.1656C141.342 49.3219 141.457 49.4596 141.595 49.5707C141.892 49.805 142.262 49.9264 142.639 49.914C142.868 49.9226 143.096 49.8808 143.307 49.7914C143.518 49.7021 143.708 49.5674 143.863 49.3967L144.287 49.8973C144.096 50.1247 143.853 50.3022 143.58 50.4146C143.277 50.5384 142.952 50.5992 142.625 50.5933C142.21 50.6025 141.799 50.5067 141.43 50.3144C141.093 50.1371 140.814 49.8668 140.623 49.5349C140.44 49.1872 140.344 48.7991 140.344 48.405C140.344 48.0109 140.44 47.6228 140.623 47.2751C140.798 46.9472 141.063 46.6767 141.385 46.4956C141.717 46.3029 142.095 46.2048 142.479 46.2119C142.859 46.2046 143.234 46.3027 143.563 46.4956C143.881 46.6771 144.14 46.9479 144.308 47.2751C144.492 47.6292 144.584 48.0244 144.577 48.4241C144.571 48.5033 144.56 48.5821 144.544 48.6601ZM141.536 47.2107C141.286 47.4428 141.13 47.7606 141.099 48.1023H143.82C143.79 47.7605 143.634 47.4425 143.384 47.2107C143.125 46.9905 142.797 46.8697 142.459 46.8697C142.12 46.8697 141.792 46.9905 141.533 47.2107H141.536Z" fill="#101D23"/>
<path d="M149.328 46.2454V50.5362H148.559V46.9319H146.732L146.682 47.8854C146.667 48.37 146.616 48.8528 146.531 49.33C146.477 49.6629 146.351 49.9796 146.161 50.2573C146.081 50.3695 145.974 50.4598 145.851 50.5201C145.727 50.5804 145.591 50.6089 145.454 50.6029C145.294 50.6023 145.135 50.5782 144.982 50.5314L145.032 49.8783C145.095 49.8936 145.159 49.9024 145.223 49.9045C145.32 49.906 145.416 49.88 145.499 49.8295C145.582 49.7789 145.65 49.7058 145.694 49.6184C145.807 49.4098 145.878 49.1804 145.902 48.9438C145.933 48.6864 145.966 48.3193 145.992 47.833L146.065 46.2477L149.328 46.2454Z" fill="#101D23"/>
<path d="M154.634 48.6601H151.189C151.208 48.8372 151.261 49.0088 151.346 49.1651C151.43 49.3213 151.545 49.4592 151.682 49.5707C151.98 49.8043 152.349 49.9256 152.726 49.914C152.956 49.9228 153.184 49.8811 153.396 49.7918C153.607 49.7024 153.797 49.5676 153.952 49.3967L154.377 49.8973C154.186 50.1248 153.943 50.3022 153.669 50.4146C153.37 50.5366 153.049 50.5974 152.726 50.5934C152.31 50.6026 151.899 50.5067 151.529 50.3145C151.193 50.1365 150.915 49.8662 150.725 49.535C150.541 49.1872 150.445 48.7992 150.445 48.405C150.445 48.0109 150.541 47.6229 150.725 47.2751C150.899 46.9473 151.162 46.6768 151.484 46.4956C151.817 46.3029 152.195 46.2049 152.578 46.212C152.959 46.2044 153.335 46.3025 153.665 46.4956C153.982 46.6771 154.241 46.9479 154.41 47.2751C154.593 47.6293 154.686 48.0244 154.679 48.4241C154.668 48.5036 154.653 48.5824 154.634 48.6601ZM151.625 47.2108C151.375 47.4421 151.219 47.7603 151.189 48.1023H153.912C153.881 47.7608 153.726 47.4431 153.476 47.2108C153.217 46.9905 152.889 46.8698 152.551 46.8698C152.212 46.8698 151.885 46.9905 151.625 47.2108Z" fill="#101D23"/>
<path d="M155.84 46.2456H156.608V49.3755L159.202 46.2456H159.909V50.5364H159.141V47.4136L156.547 50.5364H155.84V46.2456ZM156.906 45.4041C156.794 45.2988 156.706 45.1704 156.648 45.0276C156.591 44.8848 156.564 44.731 156.571 44.5769H157.092C157.091 44.6662 157.109 44.7548 157.144 44.8369C157.178 44.9189 157.23 44.9928 157.295 45.0537C157.439 45.181 157.627 45.2468 157.818 45.2372C158.011 45.246 158.201 45.1804 158.348 45.0537C158.415 44.9938 158.467 44.9202 158.503 44.838C158.539 44.7558 158.557 44.6667 158.556 44.5769H159.091C159.098 44.7325 159.072 44.8878 159.013 45.0317C158.953 45.1755 158.863 45.3044 158.749 45.4088C158.485 45.6101 158.16 45.7106 157.83 45.6925C157.499 45.714 157.172 45.6141 156.908 45.4112L156.906 45.4041Z" fill="#101D23"/>
<path d="M73.3711 28.4291L78.6217 11.2039H85.6759V29.2325H82.0451V11.9977L76.7874 29.2301H69.7285V11.2039H73.3711V28.4291Z" fill="#C32E18"/>
<path d="M92.7169 29.2301H89.0742V11.2039H92.7169V18.5936H100.969V11.2039H104.614V29.2325H100.971V21.8427H92.7192L92.7169 29.2301Z" fill="#C32E18"/>
<path d="M115.996 29.2301H112.34V14.472H106.889V11.2039H121.461V14.472H115.996V29.2301Z" fill="#C32E18"/>
<path d="M135.605 29.2301H123.734V11.2039H135.605V14.472H127.377V18.5936H135.351V21.8356H127.377V25.9595H135.605V29.2301Z" fill="#C32E18"/>
<path d="M142.34 29.2301H138.695V11.2039H146.24C148.205 11.2039 149.785 11.7696 150.981 12.9011C151.568 13.4517 152.031 14.1224 152.341 14.8684C152.651 15.6145 152.8 16.4188 152.778 17.2277C152.778 18.9822 152.191 20.3981 150.995 21.5042C149.8 22.6103 148.192 23.1729 146.228 23.1729H142.34V29.2301ZM142.34 14.472V19.9071H146.235C147.886 19.9071 149.015 18.77 149.015 17.2015C149.015 15.6329 147.893 14.472 146.235 14.472H142.34Z" fill="#C32E18"/>
<path d="M158.747 29.2301H155.102V11.2039H170.643V29.2325H167.001V14.472H158.749L158.747 29.2301Z" fill="#101D23"/>
<path d="M191.264 29.2301H187.366L186.093 25.3183H177.712L176.462 29.2301H172.768L178.78 11.2039H185.252L191.264 29.2301ZM181.915 12.2813L178.756 22.0549H185.049L181.915 12.2813Z" fill="#101D23"/>
<path d="M197.032 29.2301H193.387V11.2039H197.032V18.5936H205.284V11.2039H208.926V29.2325H205.286V21.8427H197.034L197.032 29.2301Z" fill="#101D23"/>
</svg>
